REM MD5 c0739d67f0d03280d15a2d0a41490590
FILE "Guy Roux Manager 2000 (France).bin" BINARY
  TRACK 01 MODE2/2352
    INDEX 01 00:00:00
  TRACK 02 AUDIO
    INDEX 00 05:24:31
    INDEX 01 05:26:31
  TRACK 03 AUDIO
    INDEX 00 05:35:29
    INDEX 01 05:37:29
  TRACK 04 AUDIO
    INDEX 00 06:32:38
    INDEX 01 06:34:38
  TRACK 05 AUDIO
    INDEX 00 09:07:66
    INDEX 01 09:09:66
REM LEADOUT 10:09:66
